:SAMPLES-PER-SECOND 24
:FULLY-SPECIFIED
:DEGREES
99
root  13.3053 41.4687 6.50516 4.5105 34.9109 -3.7774
RightUpLeg  -20.6385 -0.379615 -6.17122
RightLeg  14.2997 0.348081 -0.680809
RightFoot  16.3514 -1.50411 6.51442
RightToes  -2.08645e-008 3.77894e-005 6.81332e-007
Spine  -2.52364 -6.27449 -11.6919
Spine1  5.7175 -8.74408 12.8807
HEad  -27.2965 -5.48886 7.69022
LeftShoulder1  6.29548 -12.0762 -34.3883
LeftArm  8.6403 15.1057 -31.4817
LeftForeArm  173.347 -57.6263 -164.57
LeftHand  -0.321513 -2.36241 5.02881
RightShoulder  3.56061 6.21526 30.7358
RightArm  13.8442 -30.9732 26.9436
RightForeArm  154.567 70.2825 150.872
RightHand  -0.348442 8.09456 -3.36028
LeftUpLeg  1.76769 2.4688 7.65929
LeftLeg  9.3013 5.86108 2.75183
LeftFoot  -1.7161 1.18701 -13.9428
LeftToes  1.24767e-006 1.47042e-008 1.32732e-009
100
root  13.2521 40.671 5.79209 2.93005 31.5063 -2.8103
RightUpLeg  -21.7352 2.9692 -8.83804
RightLeg  23.15 -5.73909 -2.78266
RightFoot  12.7871 -0.880747 4.58124
RightToes  -2.08645e-008 3.77894e-005 6.81332e-007
Spine  0.596241 -5.62017 -11.6783
Spine1  4.45223 -7.99202 11.3667
HEad  -27.3924 -3.40626 7.69922
LeftShoulder1  5.54383 -11.1692 -31.7896
LeftArm  7.46117 9.94807 -30.9461
LeftForeArm  172.709 -58.3201 -164.119
LeftHand  -0.263325 -2.95704 3.90054
RightShoulder  3.43199 6.08589 29.8762
RightArm  11.5232 -29.2987 28.0305
RightForeArm  153.103 71.8264 148.117
RightHand  -0.532903 8.00231 -4.98191
LeftUpLeg  0.664897 0.0508547 6.27917
LeftLeg  13.7218 4.86311 2.64965
LeftFoot  -4.34408 0.79637 -12.4543
LeftToes  1.24767e-006 1.47042e-008 1.32732e-009
101
root  13.2205 39.4512 5.00971 0.537354 28.8353 -1.67273
RightUpLeg  -20.8032 2.71242 -11.0362
RightLeg  27.1288 -2.46472 -1.58151
RightFoot  5.62636 -1.35063 9.46882
RightToes  -2.08645e-008 3.77894e-005 6.81332e-007
Spine  4.33313 -4.85742 -11.9625
Spine1  4.35717 -7.50879 10.4819
HEad  -28.7596 -2.15637 6.88604
LeftShoulder1  5.42618 -10.9768 -31.4777
LeftArm  5.27923 3.40509 -28.2876
LeftForeArm  169.544 -61.292 -161.907
LeftHand  -0.361947 -3.25699 5.09427
RightShoulder  3.43184 6.06456 29.9562
RightArm  7.60707 -26.9756 29.1258
RightForeArm  148.353 73.8858 143.167
RightHand  -0.605806 7.88256 -5.65457
LeftUpLeg  0.937582 -0.0934744 4.68252
LeftLeg  20.2841 5.71437 2.71306
LeftFoot  -13.3932 -0.127501 -11.5045
LeftToes  1.24767e-006 1.47042e-008 1.32732e-009
102
root  13.1842 38.4489 4.25003 -0.184692 26.7538 -0.28186
RightUpLeg  -20.9571 3.15589 -13.0026
RightLeg  27.7013 -0.0626567 -0.261735
RightFoot  -0.531051 -0.90547 9.51043
RightToes  -2.08645e-008 3.77894e-005 6.81332e-007
Spine  5.23843 -4.23252 -13.9785
Spine1  6.54617 -7.57284 11.5678
HEad  -31.6304 -1.35589 6.16774
LeftShoulder1  5.7662 -11.3637 -32.7883
LeftArm  3.50472 -2.54669 -25.9744
LeftForeArm  168.267 -65.9818 -157.843
LeftHand  -0.528564 -2.631 7.87058
RightShoulder  3.55494 6.11137 31.0793
RightArm  2.39605 -24.8951 30.4995
RightForeArm  139.988 76.5572 133.781
RightHand  -0.839273 7.57057 -7.85587
LeftUpLeg  -0.0739307 -0.579575 1.75539
LeftLeg  25.4138 9.59859 5.2783
LeftFoot  -20.5504 -0.740949 -10.7009
LeftToes  1.24767e-006 1.47042e-008 1.32732e-009
103
root  13.1535 38.0968 3.5563 0.247559 22.0969 -0.203979
RightUpLeg  -23.4577 6.78838 -13.3269
RightLeg  26.8287 0.0157733 -0.212267
RightFoot  0.131519 -0.678551 6.76619
RightToes  -2.08645e-008 3.77894e-005 6.81332e-007
Spine  4.78682 -3.48751 -14.5306
Spine1  7.89182 -7.08707 12.3162
HEad  -34.5889 0.670474 5.81024
LeftShoulder1  6.23404 -11.9208 -34.4073
LeftArm  0.813461 -1.14103 -25.8197
LeftForeArm  170.125 -68.7372 -155.071
LeftHand  -0.575511 -1.96946 9.26319
RightShoulder  3.75743 6.29298 32.4702
RightArm  -1.43805 -24.4541 32.9617
RightForeArm  128.299 79.0273 118.826
RightHand  -0.764911 7.75246 -7.10449
LeftUpLeg  -2.63744 0.131529 0.111439
LeftLeg  29.216 14.2806 8.81859
LeftFoot  -21.4438 -0.772665 -10.1708
LeftToes  1.24767e-006 1.47042e-008 1.32732e-009
104
root  13.1396 38.3858 3.02585 0.622437 15.1609 -1.60858
RightUpLeg  -25.0276 10.5678 -11.9549
RightLeg  21.9699 2.29697 0.870856
RightFoot  5.25514 -1.28304 8.89895
RightToes  -2.08645e-008 3.77894e-005 6.81332e-007
Spine  5.48857 -3.00028 -13.2139
Spine1  6.42538 -6.42319 12.5986
HEad  -35.8997 4.54814 4.86504
LeftShoulder1  6.65913 -12.4139 -35.7993
LeftArm  -2.88251 9.66224 -28.0207
LeftForeArm  170.966 -66.972 -157.093
LeftHand  -0.539033 -1.80217 8.87705
RightShoulder  3.91843 6.49774 33.2952
RightArm  -1.20464 -26.4902 35.3352
RightForeArm  122.995 79.6912 112.031
RightHand  -0.592242 8.14549 -5.43924
LeftUpLeg  -3.72411 5.21417 1.35431
LeftLeg  29.4356 15.2971 9.49275
LeftFoot  -19.6475 -0.700137 -11.2589
LeftToes  1.24767e-006 1.47042e-008 1.32732e-009
105
root  13.054 38.9943 2.7216 1.84216 10.607 -2.66467
RightUpLeg  -23.4637 6.56758 -8.93194
RightLeg  13.4652 7.50668 0.998389
RightFoot  7.46167 -1.97831 12.2395
RightToes  -2.08645e-008 3.77894e-005 6.81332e-007
Spine  5.75476 -3.81149 -13.5926
Spine1  4.26133 -7.33451 14.5107
HEad  -35.0848 8.50191 3.44662
LeftShoulder1  6.95315 -12.729 -36.7714
LeftArm  -5.62768 22.4097 -32.1366
LeftForeArm  167.28 -64.1535 -159.421
LeftHand  -0.527446 -1.23534 9.40385
RightShoulder  3.93867 6.52369 33.3947
RightArm  1.75052 -30.5933 36.0496
RightForeArm  131.551 78.8563 120.887
RightHand  -0.443577 8.41318 -4.0977
LeftUpLeg  -3.3344 9.50705 2.71847
LeftLeg  25.1985 15.0815 7.99886
LeftFoot  -16.7049 -0.460627 -11.9463
LeftToes  1.24767e-006 1.47042e-008 1.32732e-009
106
root  12.8625 39.5789 2.55929 3.90247 8.99091 -3.06427
RightUpLeg  -21.6047 -0.60757 -6.39327
RightLeg  7.61608 9.04356 -0.0359982
RightFoot  4.86551 -1.63091 11.6529
RightToes  -2.08645e-008 3.77894e-005 6.81332e-007
Spine  4.056 -5.40339 -14.7906
Spine1  3.55952 -9.11624 16.7894
HEad  -32.7766 10.7344 2.71824
LeftShoulder1  7.07831 -12.8507 -37.2041
LeftArm  -6.11938 30.5699 -36.0855
LeftForeArm  165.303 -64.0283 -159.329
LeftHand  -0.578221 -1.09108 10.5016
RightShoulder  3.90604 6.44181 33.3905
RightArm  3.60583 -35.352 35.2162
RightForeArm  142.751 77.5473 130.619
RightHand  -0.261879 9.34104 -2.45557
LeftUpLeg  -3.09276 8.28951 2.91514
LeftLeg  19.4143 18.126 6.78118
LeftFoot  -12.6367 -0.0543533 -11.4498
LeftToes  1.24767e-006 1.47042e-008 1.32732e-009
107
root  12.5886 39.9517 2.40363 5.34509 7.40649 -3.42206
RightUpLeg  -20.556 -1.20321 -6.32744
RightLeg  7.77265 2.66972 -0.745197
RightFoot  2.00535 -1.00641 8.72173
RightToes  -2.08645e-008 3.77894e-005 6.81332e-007
Spine  2.30953 -6.23221 -14.5058
Spine1  3.4926 -9.85202 17.2457
HEad  -30.3992 11.3135 2.80625
LeftShoulder1  7.06073 -12.8375 -37.1337
LeftArm  -4.37632 33.7095 -37.9348
LeftForeArm  167.291 -65.3786 -158.319
LeftHand  -0.546349 -1.52839 9.33431
RightShoulder  3.90704 6.42567 33.4746
RightArm  3.44206 -39.3203 33.8988
RightForeArm  145.534 77.1289 132.965
RightHand  -0.228252 9.46523 -2.18673
LeftUpLeg  -2.48381 5.60018 3.30015
LeftLeg  14.6376 22.738 5.55445
LeftFoot  -9.70519 0.220465 -11.327
LeftToes  1.24767e-006 1.47042e-008 1.32732e-009
108
root  12.2312 40.0342 2.18615 5.97583 5.65942 -3.59882
RightUpLeg  -19.8183 0.607399 -7.14749
RightLeg  12.2024 -4.45144 -1.79488
RightFoot  1.4823 -0.590865 5.36561
RightToes  -2.08645e-008 3.77894e-005 6.81332e-007
Spine  1.79605 -6.23009 -13.5461
Spine1  3.11506 -9.68111 16.6721
HEad  -29.1051 11.0976 3.05381
LeftShoulder1  7.00493 -12.811 -36.8707
LeftArm  -0.915747 33.0739 -37.0405
LeftForeArm  168.752 -66.2957 -157.587
LeftHand  -0.431641 -2.07989 6.90929
RightShoulder  3.9095 6.46417 33.3628
RightArm  2.72945 -41.5832 32.8271
RightForeArm  138.95 77.6887 129.03
RightHand  -0.397928 8.44297 -3.70862
LeftUpLeg  -1.73502 5.17354 3.93387
LeftLeg  11.4191 25.1626 4.10758
LeftFoot  -8.96349 0.289397 -11.3452
LeftToes  1.24767e-006 1.47042e-008 1.32732e-009
